name analog
datacolumns 19
datarows 56
range 0.4335 0.461
endheader
time	ground_force_vx	ground_force_vy	ground_force_vz	ground_force_px	ground_force_py	ground_force_pz	l_ground_force_vx	l_ground_force_vy	l_ground_force_vz	l_ground_force_px	l_ground_force_py	l_ground_force_pz	ground_torque_x	ground_torque_y	ground_torque_z	l_ground_torque_x	l_ground_torque_y	l_ground_torque_z
0.4335	-0.0	-0.0	-0.0	0.0649608746170997	14.603827476501465	-392.3829345703125	-0.7479758858680725	-17.70245933532715	-405.2143249511719	-0.0	-0.0	-0.0	-0.0	-0.0	-0.0	84864.2421875	-35398.38671875	-4187.65771484375
0.434	-0.0	-0.0	-0.0	0.037739560008049	14.679078102111816	-392.3692321777344	-0.4176360368728637	-17.941539764404297	-405.2146606445313	-0.0	-0.0	-0.0	-0.0	-0.0	-0.0	85065.1953125	-35355.98828125	-4204.37060546875
0.4345	-0.0	-0.0	-0.0	0.0238697677850723	14.82326889038086	-393.2235412597656	-0.2661323547363281	-17.77731704711914	-406.3150024414063	-0.0	-0.0	-0.0	-0.0	-0.0	-0.0	85311.8203125	-35562.30078125	-4225.61865234375
0.435	-0.0	-0.0	-0.0	-0.0418675690889358	14.528255462646484	-393.6466674804688	0.0756428092718124	-17.601486206054688	-407.2092895507813	-0.0	-0.0	-0.0	-0.0	-0.0	-0.0	85359.4375	-35569.09765625	-4182.86181640625
0.4355	-0.0	-0.0	-0.0	-0.3520383834838867	15.128759384155272	-393.08929443359375	0.4942468404769897	-17.235347747802734	-405.9635925292969	-0.0	-0.0	-0.0	-0.0	-0.0	-0.0	85536.234375	-35554.06640625	-4114.61474609375
0.436	-0.0	-0.0	-0.0	0.0375004895031452	14.720712661743164	-393.53466796875	0.6972490549087524	-17.399372100830078	-403.4195861816406	-0.0	-0.0	-0.0	-0.0	-0.0	-0.0	85251.3515625	-35477.12890625	-3915.3076171875
0.4365	-0.0	-0.0	-0.0	0.356842041015625	14.936521530151367	-394.05755615234375	1.254878282546997	-16.9954891204834	-402.61920166015625	-0.0	-0.0	-0.0	-0.0	-0.0	-0.0	84869.859375	-35330.35546875	-3970.0576171875
0.437	-0.0	-0.0	-0.0	0.4003491103649139	14.654706001281738	-390.0915832519531	1.8512170314788816	-16.427833557128906	-401.3240966796875	-0.0	-0.0	-0.0	-0.0	-0.0	-0.0	84705.515625	-35522.0078125	-3863.0966796875
0.4375	-0.0	-0.0	-0.0	0.5433799028396606	14.149042129516602	-391.1178894042969	1.734763264656067	-16.1497745513916	-399.28076171875	-0.0	-0.0	-0.0	-0.0	-0.0	-0.0	84424.6171875	-35087.328125	-3791.629638671875
0.438	-0.0	-0.0	-0.0	0.6912133097648621	14.312801361083984	-390.3222351074219	2.2798585891723637	-15.849339485168455	-398.2336120605469	-0.0	-0.0	-0.0	-0.0	-0.0	-0.0	83935.234375	-35016.421875	-3726.72021484375
0.4385	-0.0	-0.0	-0.0	0.8103775978088379	14.186569213867188	-388.2919616699219	2.432845115661621	-15.836270332336426	-397.8846435546875	-0.0	-0.0	-0.0	-0.0	-0.0	-0.0	83860.1015625	-35000.87890625	-3701.33349609375
0.439	-0.0	-0.0	-0.0	0.9070860147476196	13.94924545288086	-387.2914733886719	2.395191192626953	-15.75868320465088	-398.7311401367188	-0.0	-0.0	-0.0	-0.0	-0.0	-0.0	84166.5	-35043.296875	-3727.399169921875
0.4395	-0.0	-0.0	-0.0	0.9745650291442872	13.91947078704834	-389.0909118652344	2.1528728008270264	-15.507272720336914	-398.4358825683594	-0.0	-0.0	-0.0	-0.0	-0.0	-0.0	83822.2421875	-34991.91015625	-3773.124755859375
0.44	-0.0	-0.0	-0.0	1.0618128776550293	13.665201187133787	-388.937255859375	2.231555461883545	-15.54461669921875	-400.3141174316406	-0.0	-0.0	-0.0	-0.0	-0.0	-0.0	84204.09375	-35100.9921875	-3816.4951171875
0.4405	-0.0	-0.0	-0.0	0.9874337911605836	13.443309783935549	-388.936279296875	2.026402235031128	-16.06066131591797	-400.9358215332031	-0.0	-0.0	-0.0	-0.0	-0.0	-0.0	84438.3046875	-35335.56640625	-3943.292236328125
0.441	-0.0	-0.0	-0.0	1.4273681640625	13.799699783325195	-390.179443359375	1.6481878757476809	-15.986225128173828	-401.5050354003906	-0.0	-0.0	-0.0	-0.0	-0.0	-0.0	84670.7421875	-35393.04296875	-3965.39111328125
0.4415	-0.0	-0.0	-0.0	1.495403289794922	13.38516616821289	-390.8025512695313	1.5684551000595093	-16.148761749267578	-401.1194458007813	-0.0	-0.0	-0.0	-0.0	-0.0	-0.0	84596.1796875	-35437.234375	-3953.041748046875
0.442	-0.0	-0.0	-0.0	1.14910888671875	13.720932960510254	-391.03265380859375	1.6711753606796265	-16.325244903564453	-401.4343872070313	-0.0	-0.0	-0.0	-0.0	-0.0	-0.0	84578.546875	-35296.28125	-3879.364013671875
0.4425	-0.0	-0.0	-0.0	1.280771017074585	13.77859592437744	-392.6539916992188	1.3162018060684204	-16.244962692260742	-401.6704711914063	-0.0	-0.0	-0.0	-0.0	-0.0	-0.0	84425.46875	-35242.59765625	-3936.093017578125
0.443	-0.0	-0.0	-0.0	0.8234949707984924	14.256271362304688	-393.08929443359375	1.7596650123596191	-16.074546813964844	-398.6997375488281	-0.0	-0.0	-0.0	-0.0	-0.0	-0.0	84480.1171875	-35286.48828125	-3908.283203125
0.4435	-0.0	-0.0	-0.0	1.070526123046875	14.601236343383787	-393.812255859375	1.825926423072815	-15.78028964996338	-399.7786254882813	-0.0	-0.0	-0.0	-0.0	-0.0	-0.0	84327.578125	-34982.0390625	-3804.6259765625
0.444	-0.0	-0.0	-0.0	0.6609313488006592	14.72666072845459	-394.4374694824219	1.4045318365097046	-16.08209991455078	-398.9349365234375	-0.0	-0.0	-0.0	-0.0	-0.0	-0.0	84162.203125	-34971.51953125	-3889.074951171875
0.4445	-0.0	-0.0	-0.0	0.3932193219661712	14.990348815917969	-396.1890258789063	1.981638789176941	-15.77288818359375	-395.99700927734375	-0.0	-0.0	-0.0	-0.0	-0.0	-0.0	83586.9140625	-34974.203125	-3895.89404296875
0.445	-0.0	-0.0	-0.0	0.6079263091087341	15.188467025756836	-396.4772338867188	1.9950734376907349	-15.462892532348633	-396.20159912109375	-0.0	-0.0	-0.0	-0.0	-0.0	-0.0	83537.4609375	-34654.00390625	-3742.3935546875
0.4455	-0.0	-0.0	-0.0	0.2509519457817077	15.419559478759766	-398.3209533691406	2.2177696228027344	-15.191329956054688	-394.8905029296875	-0.0	-0.0	-0.0	-0.0	-0.0	-0.0	83234.875	-34495.90234375	-3881.07421875
0.446	-0.0	-0.0	-0.0	0.0505216419696807	15.523014068603516	-398.1770629882813	2.3123779296875	-14.895733833312988	-394.8905029296875	-0.0	-0.0	-0.0	-0.0	-0.0	-0.0	82938.5078125	-34534.78515625	-3687.59619140625
0.4465	-0.0	-0.0	-0.0	0.1037324965000152	15.971220016479492	-397.6712341308594	2.9274559020996094	-14.728612899780272	-393.881103515625	-0.0	-0.0	-0.0	-0.0	-0.0	-0.0	83087.859375	-34538.9765625	-3774.15380859375
0.447	-0.0	-0.0	-0.0	0.2165546417236328	15.954341888427734	-396.6965637207031	3.104877471923828	-14.406519889831545	-393.7603759765625	-0.0	-0.0	-0.0	-0.0	-0.0	-0.0	83159.15625	-34505.08203125	-3690.202880859375
0.4475	-0.0	-0.0	-0.0	0.3928539752960205	15.899554252624512	-395.4869995117188	3.141369342803955	-13.907851219177246	-394.0064697265625	-0.0	-0.0	-0.0	-0.0	-0.0	-0.0	83132.0	-34595.30859375	-3704.04443359375
0.448	-0.0	-0.0	-0.0	0.0892105102539062	15.883882522583008	-393.80120849609375	3.0003480911254883	-14.32865047454834	-394.1299133300781	-0.0	-0.0	-0.0	-0.0	-0.0	-0.0	83143.7109375	-34743.2890625	-3728.595458984375
0.4485	-0.0	-0.0	-0.0	0.5527025461196899	16.00661277770996	-393.86865234375	3.193588256835937	-14.215401649475098	-396.287109375	-0.0	-0.0	-0.0	-0.0	-0.0	-0.0	83481.078125	-34628.98046875	-3698.658203125
0.449	-0.0	-0.0	-0.0	0.71368408203125	15.865211486816406	-393.4397888183594	3.463799476623535	-13.726001739501951	-396.1442260742188	-0.0	-0.0	-0.0	-0.0	-0.0	-0.0	83601.171875	-34875.56640625	-3721.166015625
0.4495	-0.0	-0.0	-0.0	0.3926152884960174	16.292770385742188	-395.1348876953125	3.403493881225586	-13.44106674194336	-394.96917724609375	-0.0	-0.0	-0.0	-0.0	-0.0	-0.0	83479.5703125	-34588.59765625	-3656.355712890625
0.45	-0.0	-0.0	-0.0	0.1784210205078125	16.45346450805664	-396.26806640625	3.117929458618164	-13.385564804077148	-395.6665344238281	-0.0	-0.0	-0.0	-0.0	-0.0	-0.0	83582.125	-34675.6484375	-3645.494873046875
0.4505	-0.0	-0.0	-0.0	0.4639712274074554	16.52492904663086	-397.963623046875	2.999711751937866	-13.30380916595459	-395.58880615234375	-0.0	-0.0	-0.0	-0.0	-0.0	-0.0	83337.984375	-34764.1171875	-3755.421875
0.451	-0.0	-0.0	-0.0	0.053630668669939	16.72044563293457	-399.3771057128906	2.855331420898437	-13.604416847229004	-394.671875	-0.0	-0.0	-0.0	-0.0	-0.0	-0.0	82896.375	-34274.4140625	-3761.279052734375
0.4515	-0.0	-0.0	-0.0	0.2129961103200912	16.739242553710938	-398.812255859375	2.5893592834472656	-13.549042701721191	-391.6822204589844	-0.0	-0.0	-0.0	-0.0	-0.0	-0.0	82889.0390625	-34240.84765625	-3710.437255859375
0.452	-0.0	-0.0	-0.0	0.0720631927251815	17.399873733520508	-401.42523193359375	2.2705447673797607	-13.47519302368164	-393.6353149414063	-0.0	-0.0	-0.0	-0.0	-0.0	-0.0	82542.046875	-33992.2578125	-3822.838134765625
0.4525	-0.0	-0.0	-0.0	0.1092371940612793	16.89943504333496	-401.1454772949219	2.023348569869995	-13.477519989013672	-393.1447143554688	-0.0	-0.0	-0.0	-0.0	-0.0	-0.0	82978.8203125	-33760.8359375	-3875.983642578125
0.453	-0.0	-0.0	-0.0	0.1784210205078125	17.25791358947754	-400.78558349609375	1.5625320672988892	-13.584484100341797	-394.8905029296875	-0.0	-0.0	-0.0	-0.0	-0.0	-0.0	82892.140625	-33902.2265625	-3911.7529296875
0.4535	-0.0	-0.0	-0.0	-0.3734096586704254	17.150386810302734	-400.078857421875	1.3306617736816406	-14.236939430236816	-395.0311584472656	-0.0	-0.0	-0.0	-0.0	-0.0	-0.0	83154.1171875	-33868.1328125	-3936.034912109375
0.454	-0.0	-0.0	-0.0	-0.4246732294559479	17.326444625854492	-400.1528930664063	0.7992929816246033	-13.777291297912598	-397.4713745117188	-0.0	-0.0	-0.0	-0.0	-0.0	-0.0	83420.984375	-33944.359375	-3995.65087890625
0.4545	-0.0	-0.0	-0.0	-0.4271067082881927	17.272369384765625	-401.084228515625	0.0181407034397125	-14.43189525604248	-397.8212890625	-0.0	-0.0	-0.0	-0.0	-0.0	-0.0	83523.3671875	-34079.86328125	-4227.63427734375
0.455	-0.0	-0.0	-0.0	-0.7678284049034119	17.288209915161133	-399.5853576660156	0.0887107849121093	-14.255187034606934	-399.0816345214844	-0.0	-0.0	-0.0	-0.0	-0.0	-0.0	83936.9609375	-33936.02734375	-4132.7470703125
0.4555	-0.0	-0.0	-0.0	-0.3183637261390686	16.772247314453125	-399.2179870605469	-0.2484288662672042	-14.431750297546388	-398.38226318359375	-0.0	-0.0	-0.0	-0.0	-0.0	-0.0	83576.390625	-33885.04296875	-4192.39208984375
0.456	-0.0	-0.0	-0.0	-0.0386650413274765	17.043222427368164	-399.9380187988281	-0.2128465473651886	-14.043148040771484	-397.1962890625	-0.0	-0.0	-0.0	-0.0	-0.0	-0.0	83342.75	-33685.71484375	-4192.3203125
0.4565	-0.0	-0.0	-0.0	0.5004045367240906	16.59773063659668	-398.3261413574219	-0.0360417962074279	-14.1314697265625	-395.5178527832031	-0.0	-0.0	-0.0	-0.0	-0.0	-0.0	83109.1328125	-33618.24609375	-4233.75390625
0.457	-0.0	-0.0	-0.0	0.7529362440109253	16.384841918945312	-398.5247192382813	-0.0352790281176567	-13.74101448059082	-394.8864440917969	-0.0	-0.0	-0.0	-0.0	-0.0	-0.0	83126.2421875	-33268.69921875	-4268.7236328125
0.4575	-0.0	-0.0	-0.0	1.070526123046875	16.07818603515625	-397.18988037109375	-0.0534783080220222	-13.831426620483398	-395.45013427734375	-0.0	-0.0	-0.0	-0.0	-0.0	-0.0	82894.6953125	-33200.95703125	-4257.29052734375
0.458	-0.0	-0.0	-0.0	1.1745209693908691	16.08319854736328	-396.7785034179688	-0.2125740051269531	-13.989824295043944	-395.37799072265625	-0.0	-0.0	-0.0	-0.0	-0.0	-0.0	82902.34375	-33057.4296875	-4227.1982421875
0.4585	-0.0	-0.0	-0.0	1.2436175346374512	15.454146385192873	-396.3680725097656	-0.3382358849048614	-14.309996604919434	-395.45062255859375	-0.0	-0.0	-0.0	-0.0	-0.0	-0.0	82763.28125	-33030.38671875	-4251.38623046875
0.459	-0.0	-0.0	-0.0	1.37270987033844	16.00895118713379	-398.0562133789063	-0.3570630848407745	-13.831618309020996	-396.774169921875	-0.0	-0.0	-0.0	-0.0	-0.0	-0.0	82564.328125	-32994.52734375	-4353.40576171875
0.4595	-0.0	-0.0	-0.0	1.1049978733062744	15.494498252868652	-397.6004028320313	-0.5160946249961853	-14.342920303344728	-396.0755310058594	-0.0	-0.0	-0.0	-0.0	-0.0	-0.0	82671.9921875	-32969.76171875	-4216.3037109375
0.46	-0.0	-0.0	-0.0	1.2145222425460815	15.350770950317385	-397.4886779785156	-0.0349137634038925	-14.677359580993652	-394.8792724609375	-0.0	-0.0	-0.0	-0.0	-0.0	-0.0	82767.5859375	-33242.9609375	-4251.07080078125
0.4605	-0.0	-0.0	-0.0	1.0428804159164429	15.721263885498049	-398.2510070800781	-0.0729203671216964	-14.765442848205566	-395.1647033691406	-0.0	-0.0	-0.0	-0.0	-0.0	-0.0	82350.4453125	-33132.48828125	-4256.31982421875
0.461	-0.0	-0.0	-0.0	0.94000905752182	15.549959182739258	-397.1639099121094	-0.0191743597388267	-15.295177459716797	-394.8905029296875	-0.0	-0.0	-0.0	-0.0	-0.0	-0.0	82353.578125	-33167.390625	-4158.0615234375
